<svg role="img" width="14" height="14" viewBox="0 0 31 47" fill="none" xmlns="http://www.w3.org/2000/svg">
<path fill-rule="evenodd" clip-rule="evenodd" d="M0.110306 10.8463C0.110306 10.8463 0.318889 11.8 1.16259 10.9639C2.00628 10.1278 3.93889 5.41584 6.25957 6.01431C8.58024 6.61277 7.73355 9.81213 7.71373 12.3657C7.69514 14.7616 6.98299 21.1422 13.378 24.0705C19.773 26.9988 23.3537 19.8466 23.3537 19.8466C23.3537 19.8466 24.0364 18.1335 22.0321 18.8792C20.0278 19.6248 15.9356 20.2273 14.3226 18.1567C12.7095 16.086 12.5647 12.9121 12.5325 10.724C12.5003 8.53586 13.9522 1.9174 11.1857 0.600216C7.17216 -1.31067 -1.04551 1.14163 0.110306 10.8463ZM10.5117 32.8462C10.5117 32.8462 11.3125 32.1967 11.1754 33.2537C11.0383 34.3107 10.0617 39.5462 9.9505 40.568C9.83926 41.5898 10.5552 41.2677 10.7562 41.21C10.9571 41.1522 14.6164 39.0452 17.3248 35.2882C20.0096 31.5638 23.7311 26.861 24.8963 18.9917C25.7315 13.3505 25.555 2.09262 25.5139 0.550125C25.5042 0.186332 25.6818 0.137667 25.946 0.109353C26.8081 0.0168786 28.3207 -0.0396718 30.1698 0.198993C30.7057 0.268165 30.799 0.345303 30.8262 0.796973C30.8996 2.01582 31.2477 9.14095 30.6855 15.6715C29.0146 35.0793 18.387 42.7093 11.5818 46.2397C8.70837 47.7304 6.46651 46.8807 6.08897 44.9767C5.56906 42.3546 5.23072 39.0471 10.5117 32.8462Z" fill="#7F5AF0"/>
</svg>
